/* XPM */
static char *bitcoin32[] = {
/* columns rows colors chars-per-pixel */
"32 32 118 2 ",
"   c None",
".  c #010304",
"X  c #040907",
"o  c #060809",
"O  c #0A0B0C",
"+  c #0B150E",
"@  c #0D1710",
"#  c #0E1A12",
"$  c #0E1C1A",
"%  c #121314",
"&  c #111F14",
"*  c #171C1B",
"=  c #1C1D1E",
"-  c #112016",
";  c #13241A",
":  c #192D1C",
">  c #142620",
",  c #1F2021",
"<  c #182E24",
"1  c #182E28",
"2  c #1B362F",
"3  c #1C3731",
"4  c #222324",
"5  c #252927",
"6  c #262B2A",
"7  c #223B24",
"8  c #26302E",
"9  c #29302F",
"0  c #213D2E",
"q  c #2B3633",
"w  c #243F37",
"e  c #2E3C34",
"r  c #2E3A38",
"t  c #274529",
"y  c #28462A",
"u  c #2C4337",
"i  c #2B4E35",
"p  c #2B4339",
"a  c #334337",
"s  c #35473E",
"d  c #364A3C",
"f  c #335136",
"g  c #335A36",
"h  c #3A643B",
"j  c #3F6D3F",
"k  c #254A43",
"l  c #294F44",
"z  c #274E48",
"x  c #384E46",
"c  c #394F49",
"v  c #3C5343",
"b  c #385E43",
"n  c #3A514D",
"m  c #3F5A49",
"M  c #345651",
"N  c #3C5653",
"B  c #3F6E40",
"V  c #33624D",
"C  c #3B6E4D",
"Z  c #3E7045",
"A  c #366855",
"S  c #3B6E51",
"D  c #3C7155",
"F  c #3D745B",
"G  c #3E7660",
"H  c #3E7865",
"J  c #405C44",
"K  c #405C4C",
"L  c #415F51",
"P  c #415F5B",
"I  c #42604F",
"U  c #407244",
"Y  c #417649",
"T  c #42794D",
"R  c #456554",
"E  c #476951",
"W  c #496D56",
"Q  c #42615C",
"!  c #496D5C",
"~  c #4C7352",
"^  c #447C53",
"/  c #4C735B",
"(  c #427D5C",
")  c #517B56",
"_  c #517C5C",
"`  c #4D7464",
"'  c #437F62",
"]  c #527E65",
"[  c #527E6B",
"{  c #45815B",
"}  c #538156",
"|  c #57855B",
" . c #468564",
".. c #44846E",
"X. c #478869",
"o. c #498B6E",
"O. c #568667",
"+. c #578962",
"@. c #598A65",
"#. c #5A8E6C",
"$. c #478B76",
"%. c #4A8E75",
"&. c #468A78",
"*. c #558471",
"=. c #5A8F7C",
"-. c #4A917D",
";. c #5C9274",
":. c #5E967C",
">. c #4C9583",
",. c #4D9A8A",
"<. c #5F9981",
"1. c #5F988F",
"2. c #619B85",
"3. c #629E8C",
"4. c #619C91",
"5. c #63A08F",
"6. c #64A192",
"7. c #66A59A",
/* pixels */
"              4 4 4 4 4 4 4 4 4 4 4 4 4 4 4 4 4 4               ",
"            4 4 4 4 4 4 4 4 4 4 4 4 4 4 4 4 4 4 4 4             ",
"          4 4 4 4 4 4 4 4 4 4 4 4 4 4 4 4 4 4 4 4 4 4           ",
"        4 4 4 4 4 4 4 4 4 4 4 4 4 4 4 4 4 4 4 4 4 4 4 4         ",
"      4 4 4 4 4 4 4 4 4 4 4 4 4 4 4 4 4 4 4 4 4 4 4 4 4 4       ",
"    4 4 4 4 4 4 6 c N c n n n n c c q 4 4 4 4 4 4 4 4 4 4 4     ",
"  4 4 4 4 4 4 r 3.7.7.6.6.3.5.2.2.:.:.R 4 4 4 4 4 4 4 4 4 4 4   ",
"4 4 4 4 4 4 r 4.7.7.6.6.6.3.2.2.2.:.:.;.R 4 4 4 4 4 4 4 4 4 4 4 ",
"4 4 4 4 4 6 4.7.7.n 6 6 6 6 6 6 6 9 ] ;.#.m 4 4 4 4 4 4 4 4 4 4 ",
"4 4 4 4 4 N 7.7.n 4 8 r q q q q q 4 6 ] #.O.4 4 4 4 4 4 4 4 4 4 ",
"4 4 4 4 4 P 7.4.4 q 4.4.3.3.3.<.:.! s W #.#.E d 4 4 4 4 4 4 4 4 ",
"4 4 4 4 4 Q 7.4.4 r 6.4.3.3.<.<.:.:.;.;.#.#.@.@.J 4 4 4 4 4 4 4 ",
"= 4 4 4 4 Q 7.4.4 r 6.3.3.2.*.` ` ` / / / W _ @.| J 4 4 4 4 4 = ",
"O O , 4 4 Q 7.4.4 r 6.3.3.` 4 4 4 4 4 4 4 4 6 ~ | | a 4 4 4 O o ",
"O . . % 4 Q 7.4.4 r 3.3.[ 4 6 L K K K K J v 4 5 ) | J , % . . O ",
"o . . . . M 7.3.4 r 3.3.=.` *.:.:.;.#.#.@.@.a 4 ~ ) f o . . . o ",
"o . . . . z ,.>.% 8 3.2.2.2.:.:.;.] R / +.+.y % h U y . . . . o ",
"o . . . . k ,.>.$ . 1 w p p p p u * % b } Y ; . g B y . . . . o ",
"o . . . . $ >.>.&.$ . . . . . . . . i T T Y ; . g B t . . . . o ",
"o . . . . . 3 >.>.&.H G F F D S C C ^ T T Y ; . g U t . . . . o ",
"o . . . . . . 2 -.-.%.%.%.X. .{ { ^ ^ T T Y ; . g B t . . . . o ",
"o . . . . . . . ; z ..o.V & 0 { { ^ T T Y Z + . g B t . . . . o ",
"o . . . . . . . . . A o. .# . X X X X X X X . ; j j 7 . . . . o ",
"o . . . . . . . . . > X.X.' ; # # # # # + @ : j j h O . . . . o ",
"o . . . . . . . . . . <  .{ { { ^ T T Y Y U U j h + . . . . . X ",
"  . . . . . . . . . . . < ( { ( ^ T T Y U U Z h # . . . . . o   ",
"    o . . . . . . . . . . X - - - - - & - & % X . . . . . .     ",
"      . . . . . . . . . . . . . . . . . . . . . . . . . .       ",
"        . . . . . . . . . . . . . . . . . . . . . . . .         ",
"          . . . . . . . . . . . . . . . . . . . . . o           ",
"            o . . . . . . . . . . . . . . . . . . o             ",
"              o o o o o o o o o o o O X o o o o X               "
};
