/* XPM */
static char *bitcoin64[] = {
/* columns rows colors chars-per-pixel */
"64 64 146 2 ",
"   c None",
".  c #010304",
"X  c #060909",
"o  c #0C0D0E",
"O  c #09100C",
"+  c #0C1411",
"@  c #0E1A14",
"#  c #0F1C18",
"$  c #131314",
"%  c #101D13",
"&  c #141A19",
"*  c #1A1B1C",
"=  c #12211A",
"-  c #192D1D",
";  c #1B301E",
":  c #1E1F20",
">  c #132420",
",  c #1E2021",
"<  c #192E21",
"1  c #1B3223",
"2  c #1A3129",
"3  c #1E3A33",
"4  c #222324",
"5  c #252928",
"6  c #213B25",
"7  c #263228",
"8  c #2A322E",
"9  c #213D2B",
"0  c #2B3432",
"q  c #2E3C34",
"w  c #2F3C38",
"e  c #313F3C",
"r  c #26442B",
"t  c #2B4B2F",
"y  c #2D502F",
"u  c #264435",
"i  c #2A4C30",
"p  c #33443C",
"a  c #364A3F",
"s  c #384D3C",
"d  c #2D5030",
"f  c #2F573C",
"g  c #2F583E",
"h  c #37553B",
"j  c #325B3E",
"k  c #36613C",
"l  c #3B673D",
"z  c #3E6C3F",
"x  c #354744",
"c  c #364A44",
"v  c #384E46",
"b  c #374D48",
"n  c #384E48",
"m  c #2D5544",
"M  c #2F5840",
"N  c #3C5445",
"B  c #305B45",
"V  c #3D5D44",
"C  c #3B534C",
"Z  c #325E4C",
"A  c #3E584D",
"S  c #2D5952",
"D  c #3F6E40",
"F  c #34614A",
"G  c #396A4E",
"H  c #3F7040",
"J  c #336354",
"K  c #35675A",
"L  c #35685B",
"P  c #3E7662",
"I  c #415F46",
"U  c #425F49",
"Y  c #426147",
"T  c #406F42",
"R  c #44634A",
"E  c #407244",
"W  c #427649",
"Q  c #42794D",
"!  c #4B7C4E",
"~  c #486A54",
"^  c #45675A",
"/  c #496D5A",
"(  c #437C53",
")  c #4A7F55",
"_  c #4D735A",
"`  c #447F5A",
"'  c #517B54",
"]  c #496F68",
"[  c #4E7765",
"{  c #427C63",
"}  c #4E7967",
"|  c #4A726B",
" . c #467B6A",
".. c #4C7D6B",
"X. c #527E64",
"o. c #517E6E",
"O. c #4E7872",
"+. c #527E74",
"@. c #458057",
"#. c #45815C",
"$. c #4F825D",
"%. c #558357",
"&. c #56855B",
"*. c #57885C",
"=. c #478564",
"-. c #478867",
";. c #468569",
":. c #488A6C",
">. c #558562",
",. c #588761",
"<. c #578962",
"1. c #588A65",
"2. c #53816C",
"3. c #578968",
"4. c #5A8D6C",
"5. c #5C906F",
"6. c #438677",
"7. c #498D73",
"8. c #468A7A",
"9. c #498E7B",
"0. c #538275",
"q. c #5B8F71",
"w. c #55837A",
"e. c #4A9076",
"r. c #4A927C",
"t. c #5C9274",
"y. c #5E967B",
"u. c #5F987F",
"i. c #60987E",
"p. c #538E81",
"a. c #588C80",
"s. c #4C9583",
"d. c #4D9887",
"f. c #4D998A",
"g. c #5E9781",
"h. c #5F9982",
"j. c #5D948A",
"k. c #529C8E",
"l. c #619A85",
"z. c #629E8B",
"x. c #629D92",
"c. c #5BA193",
"v. c #63A08E",
"b. c #64A293",
"n. c #66A69A",
"m. c #68A79D",
/* pixels */
"                            5 4 5 4 4 4 4 5 4 5 5 4 5 4 4 4 4 5 4 5 4 4 5 4 4 5 4 4 4 5 5 4 5 4 4 4                             ",
"                          5 4 4 4 4 4 4 4 4 4 4 4 4 4 4 4 4 4 4 4 4 4 4 4 4 4 4 , 4 4 4 4 4 4 4 4 4 5                           ",
"                        4 4 4 4 4 4 4 4 4 4 4 4 4 4 4 4 4 4 4 4 4 4 4 4 4 4 4 4 4 4 4 4 4 4 4 4 4 4 4 4                         ",
"                      4 4 4 4 4 4 4 4 4 4 4 4 4 4 4 4 4 4 4 4 4 4 4 4 4 4 4 4 4 4 4 4 4 4 4 4 4 4 4 4 4 5                       ",
"                    4 4 4 4 4 4 , 4 4 4 4 4 4 4 4 4 4 4 4 4 4 4 4 4 4 4 4 4 4 4 4 4 4 4 4 4 4 4 4 4 4 4 4 4                     ",
"                  4 4 4 4 4 4 4 4 4 4 4 4 4 , 4 4 4 4 4 4 4 4 4 4 4 4 4 4 4 4 4 4 4 4 4 4 4 4 4 4 4 4 4 4 4 4                   ",
"                5 4 4 4 4 4 4 4 4 4 4 4 4 4 4 4 4 4 4 4 4 4 4 4 4 : 4 4 4 4 4 4 4 4 4 4 4 4 4 4 4 4 4 4 4 4 4 4                 ",
"              4 4 4 4 4 4 4 4 4 4 4 4 4 4 4 4 4 4 4 4 4 4 4 4 4 4 4 4 4 4 4 4 4 4 : 4 4 4 4 4 4 4 4 4 4 4 4 4 4 5               ",
"            5 4 4 4 4 4 4 4 4 4 4 4 , 4 4 , 4 4 4 4 4 4 4 4 4 4 4 4 4 4 4 4 4 4 4 4 4 4 4 4 4 4 4 4 4 4 4 4 4 4 4 4             ",
"          4 4 4 4 4 4 4 4 4 4 4 4 4 5 4 4 4 4 4 4 4 4 4 4 4 4 4 4 4 4 4 4 4 4 4 4 4 4 4 4 4 4 4 4 4 4 4 4 4 4 4 4 4 4           ",
"        4 4 4 , 4 4 4 4 4 4 4 4 4 4 4 4 4 4 4 4 4 4 4 4 4 4 4 4 4 4 4 4 4 4 4 4 4 4 4 4 4 4 4 4 4 4 4 4 4 4 4 4 4 4 4 4         ",
"      4 4 4 4 4 4 4 4 4 4 4 4 4 4 w ] 0.w.w.w.w.0.+.+.+.o.+.+.o.o.o.} [ ^ e 4 4 4 4 4 4 4 4 4 4 4 4 4 4 : 4 4 4 4 4 4 4 5       ",
"    5 4 4 4 4 4 4 4 4 4 4 4 4 4 [ n.n.n.n.b.n.b.b.b.z.z.v.z.z.l.l.l.y.y.y.y./ 4 4 4 4 4 4 4 4 4 4 4 4 4 4 4 4 4 4 4 4 4 4 4     ",
"  4 4 4 4 4 4 4 4 4 4 4 4 4 4 | n.n.n.b.b.n.b.b.b.z.v.b.v.h.l.l.l.l.l.y.y.y.t.] 4 4 4 4 4 4 4 4 4 4 4 : 4 4 4 4 4 4 4 4 4 4 5   ",
"4 4 4 4 4 4 4 , 4 4 4 4 4 4 O.n.n.n.n.b.n.b.n.v.v.v.j.v.z.z.z.h.i.i.y.y.y.y.q.q.~ 4 4 4 4 4 4 4 4 4 4 4 4 4 4 4 4 4 4 4 4 4 4 4 ",
"4 4 4 4 4 4 4 4 4 4 4 4 4 O.m.n.n.n.n.n.b.n.b.b.v.v.v.v.z.l.l.l.l.i.l.y.y.q.t.y.q./ 4 4 4 4 4 4 4 4 4 4 4 4 4 4 4 4 4 4 4 4 4 5 ",
"5 4 4 4 4 4 4 4 , 5 4 4 O.m.m.n.n.n.x.b 0 0 0 0 0 0 0 0 0 0 0 0 0 0 8 b t.q.t.t.t.5.~ 4 4 4 , 4 4 4 4 4 4 4 4 4 4 4 4 4 4 4 4 4 ",
"4 4 4 4 4 4 4 4 4 4 4 x n.m.m.n.m.x.e 4 : 5 4 4 4 4 4 4 4 4 4 4 4 4 4 4 x y.t.t.5.5.5.p 4 4 4 4 4 4 4 4 4 4 4 4 4 4 4 4 4 4 4 4 ",
"4 4 4 4 4 4 4 4 4 4 4 O.m.m.n.n.x.e 4 4 5 : 4 4 4 4 4 4 4 4 4 4 4 4 , 4 , p t.q.5.4.5._ 4 4 5 4 4 4 4 4 4 4 4 4 4 4 : 4 4 4 4 4 ",
"4 4 4 4 4 4 4 4 4 4 4 j.m.n.n.x.e : 4 4 5 b b b b b v v x x x a x p 5 4 4 4 p q.t.5.4.3.4 4 , 4 4 4 4 4 4 4 4 4 4 4 4 4 4 4 4 4 ",
"4 4 4 4 4 4 4 4 4 4 4 x.n.n.m.j.4 4 4 5 p.x.x.x.z.z.z.l.l.h.h.g.u.u.[ 4 4 4 4 3.4.4.4.4.N p 5 , 4 4 4 4 4 4 4 4 4 4 4 4 4 4 4 4 ",
"4 4 4 4 4 4 4 4 4 4 4 x.m.n.n.j.4 4 4 C n.x.z.n.z.z.z.l.l.l.g.u.u.y.y.2./ / _ q.4.4.4.3.3.1.*.N 4 : 4 4 4 4 4 4 4 4 4 4 4 4 4 4 ",
"4 4 4 4 4 4 4 4 4 4 4 x.m.n.n.j.4 4 4 C n.z.x.z.z.z.z.l.z.l.h.u.i.y.y.t.t.t.t.5.q.4.4.4.3.1.<.,.U 4 4 4 4 4 4 4 4 4 4 4 4 4 4 4 ",
"4 4 4 4 4 4 4 4 4 4 4 x.m.n.n.j.4 4 4 C v.b.n.z.z.z.z.l.l.h.u.u.u.i.y.t.t.t.t.t.4.4.4.1.1.1.1.,.,.R 4 4 4 4 4 4 4 4 4 4 4 4 4 5 ",
"4 4 4 4 4 4 4 4 4 4 4 x.n.n.n.j.4 4 4 C z.b.x.v.z.z.l.l.l.h.g.u.i.y.u.y.t.q.t.q.4.4.1.1.1.1.,.,.*.*.Y 4 4 4 4 4 4 4 4 4 4 4 4 4 ",
"$ * 4 4 4 4 4 4 4 4 4 x.n.n.n.l.4 4 , C n.z.v.z.z.z.z.l.+.A A A N N A N N N N N N N N N N ,.,.,.*.*.&.Y 4 4 4 4 4 4 4 4 4 4 * $ ",
"o . $ : 4 4 4 4 4 4 4 x.n.n.n.j.4 4 4 C b.z.z.z.z.z.l.2.4 5 4 4 4 4 4 4 4 4 4 4 4 4 4 4 4 q &.,.,.*.&.%.s 4 4 4 4 4 4 4 : $ . o ",
"o . . . $ 4 4 4 4 4 4 b.n.n.b.j., 5 , C b.b.z.z.z.l.o.5 4 4 , 4 4 4 4 4 4 4 4 4 4 4 4 4 4 4 q &.*.*.%.%.' 4 4 4 4 4 4 $ . . . o ",
"o . . . . o : 4 4 4 4 x.n.n.b.j.4 4 5 C x.x.z.z.l.o.4 4 4 4 4 5 5 5 5 4 4 5 5 4 5 5 5 4 4 4 4 q ' ,.&.&.%.8 4 4 4 * o . . . . o ",
"o . . . . . . o : 4 4 n.n.n.n.j.4 4 : C x.x.z.z.z.e 4 4 4 p y.y.y.t.i.t.t.q.4.5.4.1.1.' 5 4 4 4 R *.&.&.%.q 4 : o . . . . . . o ",
"o . . . . . . . . o * x.n.n.n.j.4 4 4 C x.v.z.z.l./ n v A y.y.y.y.t.t.t.t.4.5.4.1.4.1.,.I 4 4 4 I &.' &.%.7 o . . . . . . . . o ",
"o . . . . . . . . . . k.c.n.b.j.4 4 4 C z.z.z.z.l.l.l.l.u.i.y.y.i.t.t.t.4.5.4.4.4.1.1.1.R 4 4 4 I %.%.' T % . . . . . . . . . o ",
"o . . . . . . . . . . f.f.f.k.p.: 4 , C z.z.z.z.l.l.l.h.y.y.y.y.t.t.t.q.q.4.4.4.1.1.1.1.R 4 4 - s W E T H % . . . . . . . . . o ",
"o . . . . . . . . . . f.f.f.d.6.. X + w l.z.z.z.l.l.l.l.u.y.y.y.i.t.q.p 0 8 0 3.1.1.1.1.V $ X . r E T T H % . . . . . . . . . $ ",
"o . . . . . . . . . . f.f.f.d.8.X . . . 3 {  . ...o.2.2.2.2.o.2.&.X.p 4 4 * , $.$.@.Q W t . . . r E T T H % . . . . . . . . . o ",
"o . . . . . . . . . . 8.f.f.f.s.L . . . . . . . . . . . . X X X X . X . . X j ( Q Q Q W t . . . r H z H z % . . . . . . . . . o ",
"o . . . . . . . . . . S s.f.s.f.s.L . . . . . . . . . . . . . . . . . . X j ( W Q W W W t . . . t H H z z % . . . . . . . . . o ",
"o . . . . . . . . . . + s.d.s.s.s.s.L . . . . . . . . . . . . . . . . X j ( ( ( Q Q W W t . . . r H H H z % . . . . . . . . . o ",
"o . . . . . . . . . . . > s.d.s.s.r.s.P J Z Z Z Z F Z B B B B B g g g F ( ( Q W Q Q W Q t . . . r H H H z % . . . . . . . . . o ",
"o . . . . . . . . . . . . > 9.s.s.s.r.9.r.9.7.7.7.:.-.-.=.=.=.#.#.@.` ( ( ( Q ( Q Q W H t . . . r H H H z % . . . . . . . . . o ",
"o . . . . . . . . . . . . . > 8.s.r.r.r.7.e.7.7.:.:.:.;.=.=.#.#.#.@.( ( ( ( Q ( H Q Q H t . . . r H H H H % . . . . . . . . . o ",
"o . . . . . . . . . . . . . . = 8.r.r.r.r.7.7.7.7.:.:.=.=.=.=.#.#.@.#.( ( Q H ( ( Q W W t . . . r z z H z % . . . . . . . . . o ",
"o . . . . . . . . . . . . . . . @ J 9.9.9.7.7.:.:.m 9 3 u #.=.#.#.@.( ( Q ( Q ( Q Q H Q t . . . r z H z H % . . . . . . . . . o ",
"o . . . . . . . . . . . . . . . . . . # J 7.7.:.-.% . . . < ` ` ( @.@.( ( ( Q H Q H W k O . . . r z z z z % . . . . . . . . . o ",
"o . . . . . . . . . . . . . . . . . . . m 7.7.:.:.F X . . . X O O O O O O O o O O O X X . . . + z z z z H + . . . . . . . . . o ",
"o . . . . . . . . . . . . . . . . . . . 2 7.7.:.:.-.F X . . X . . X . . . . . . . . . . . . + z H H z z l . . . . . . . . . . o ",
"o . . . . . . . . . . . . . . . . . . . X P :.:.:.-.=.F X . . . . . . . . X . . . . . . . @ l H H z H z 7 . . . . . . . . . . o ",
"o . . . . . . . . . . . . . . . . . . . . @ ;.:.-.=.=.=.F - 1 1 < < < < - - - - - - - - - l z H z z z y . . . . . . . . . . . o ",
"o . . . . . . . . . . . . . . . . . . . . . @ { -.-.=.=.#.#.#.#.@.( ( Q Q Q Q W W W E E E E E z H z y X . . . . . . . . . . . o ",
"* . . . . . . . . . . . . . . . . . . . . . . @ { -.=.#.#.#.` ( ( ( ( ( Q W W W E W E W H E z z H y X . . . . . . . . . . . . $ ",
"  $ . . . . . . . . . . . . . . . . . . . . . . # ` =.#.#.#.` ( ( ( Q Q Q Q W W W E E H E z z z y . . . . . . . . . . . . . $   ",
"    o . . . . . . . . . . . . . . . . . . . . . . @ G #.#.#.#.` ( ( Q Q Q W W Q W H E E E H z r . . . . . . . . . . . . . $     ",
"      o . . . . . . . . . . . . . . . . . . . . . . . = 3 r 9 r r 9 9 9 6 6 6 6 r 6 ; r 6 - o . . . . . . . . . . . . . o       ",
"        o . . . . . . . . . . . . . . . . . . . . . . . . . . . . . . . . . . . . . . . . . . . . . . . . . . . . . . o         ",
"          X . . . . . . . . . . . . . . . . . . . . . . . . . . . . . . . . . . . . . . . . . . . . . . . . . . . . o           ",
"            X . . . . . . . . . . . . . . . . . . . . . . . . . . . . . . . . . . . . . . . . . . . . . . . . . . X             ",
"              o . . . . . . . . . . . . . . . . . . . . . . . . . . . . . . . . . . . . . . . . . . . . . . . . X               ",
"                X . . . . . . . . . . . . . . . . . . . . . . . . . . . . . . . . . . . . . . . . . . . . . . X                 ",
"                  X . . . . . . . . . . . . . . . . . . . . . . . . . . . . . . . . . . . . . . . . . . . . o                   ",
"                    o . . . . . . . . . . . . . . . . . . . . . . . . . . . . . . . . . . . . . . . . . . o                     ",
"                      o . . . . . . . . . . . . . . . . . . . . . . . . . . . . . . . . . . . . . . . . o                       ",
"                        o . . . . . . . . . . . . . . . . . . . . . . . . . . . . . . . . . . . . . . o                         ",
"                          $ . . X . . . . . X . . . . . X . . . . . . . . . . . . . . X . . . . . . $                           ",
"                            $ o o o o o o o o o o o o o o o o o $ o o o O o o o o o o o o o o $ o $                             "
};
