/* XPM */
static char *bitcoin16[] = {
/* columns rows colors chars-per-pixel */
"16 16 119 2 ",
"   c None",
".  c #010304",
"X  c #020405",
"o  c #030506",
"O  c #050607",
"+  c #050708",
"@  c #050908",
"#  c #040909",
"$  c #060D0C",
"%  c #070F0E",
"&  c #08100B",
"*  c #09100C",
"=  c #08110C",
"-  c #09110C",
";  c #09110D",
":  c #09120E",
">  c #0A130F",
",  c #0B140E",
"<  c #0B150F",
"1  c #141516",
"2  c #121918",
"3  c #151F19",
"4  c #142416",
"5  c #142417",
"6  c #152618",
"7  c #1B311E",
"8  c #132724",
"9  c #1E3828",
"0  c #1E392B",
"q  c #1F3B2F",
"w  c #1F3D33",
"e  c #212223",
"r  c #222223",
"t  c #222323",
"y  c #222324",
"u  c #252828",
"i  c #262B28",
"p  c #272C2A",
"a  c #272C2C",
"s  c #272D2C",
"d  c #282E2E",
"f  c #282F2F",
"g  c #263528",
"h  c #29312C",
"j  c #29302F",
"k  c #293130",
"l  c #2A3330",
"z  c #293232",
"x  c #263835",
"c  c #2D3935",
"v  c #2D3937",
"b  c #2E3A38",
"n  c #2E3B39",
"m  c #31413F",
"M  c #36493D",
"N  c #39643A",
"B  c #39653B",
"V  c #3B673E",
"C  c #3D6B3E",
"Z  c #324240",
"A  c #364A40",
"S  c #384C43",
"D  c #374C49",
"F  c #365240",
"G  c #395048",
"H  c #3C5C4B",
"J  c #3F5A56",
"K  c #3E6D40",
"L  c #35654F",
"P  c #37684F",
"I  c #3D704A",
"U  c #336456",
"Y  c #366854",
"T  c #3A6D51",
"R  c #3C7253",
"E  c #3A7162",
"W  c #46684E",
"Q  c #417345",
"!  c #417448",
"~  c #42774B",
"^  c #427A4F",
"/  c #46695A",
"(  c #456D5B",
")  c #406A5D",
"_  c #46695D",
"`  c #456E5E",
"'  c #496E5A",
"]  c #4B7255",
"[  c #4B7156",
"{  c #437C52",
"}  c #447F56",
"|  c #4D755C",
" . c #4D755F",
".. c #517B56",
"X. c #517D55",
"o. c #4F7862",
"O. c #537F64",
"+. c #407E70",
"@. c #45805A",
"#. c #4E825A",
"$. c #5A8D6C",
"%. c #488B71",
"&. c #578870",
"*. c #598C74",
"=. c #5C917F",
"-. c #4D9687",
";. c #5F9880",
":. c #609982",
">. c #619C88",
",. c #629D8A",
"<. c #639E8D",
"1. c #639F8F",
"2. c #629F90",
"3. c #63A08F",
"4. c #62A095",
"5. c #65A395",
"6. c #64A196",
"7. c #64A297",
"8. c #65A299",
/* pixels */
"      y y y y y y y y y y       ",
"    t y y y y y y y y y y t     ",
"  r y y f n b v c u y y y y r   ",
"r y y D 7.5.3.>.;.&.l y y y y r ",
"y y z 8.J f k j s ' O.y y y y y ",
"y y m 7.a 2.,.:.*. .$.] h y y y ",
"1 e Z 6.d 1.=.G S A M W ..i e 1 ",
"o + x 4.d <._ / o.| [ p X.g + o ",
"o . 8 -.2 ) ` ( H F #.3 V 5 . o ",
"o . # +.E w q 0 9 I ~ < B 4 . o ",
"o . . % U %.L R } ^ ! * N 4 . o ",
"o . . . . Y P > ; - & 7 C , . o ",
"O . . . . $ T @.{ ~ Q K 6 . . O ",
"  o . . . . X : ; - = @ . . o   ",
"    o . . . . . . . . . . o     ",
"      O o o o o o o o o O       "
};
